<svg width="37" height="37" viewBox="0 0 37 37" fill="none" xmlns="http://www.w3.org/2000/svg">
<path d="M14.8236 19.548L15.7236 25.848L11.9436 26.6031C11.7402 26.6446 11.5574 26.7552 11.4262 26.9161C11.2949 27.077 11.2234 27.2783 11.2236 27.486L11.2236 32.148" stroke="#ED7D2D" stroke-width="2.16" stroke-miterlimit="10"/>
<path d="M25.624 32.148L25.624 27.486C25.6243 27.2783 25.5527 27.077 25.4215 26.9161C25.2903 26.7552 25.1075 26.6446 24.904 26.6031L21.124 25.848L22.024 19.548" stroke="#ED7D2D" stroke-width="2.16" stroke-miterlimit="10"/>
<path d="M26.5242 12.3479L22.0242 19.5479L14.8242 19.5479L10.3242 12.3479" stroke="#ED7D2D" stroke-width="2.16" stroke-miterlimit="10" stroke-linecap="square"/>
<path d="M18.4236 16.848C19.9148 16.848 21.1236 15.6392 21.1236 14.148C21.1236 12.6568 19.9148 11.448 18.4236 11.448C16.9325 11.448 15.7236 12.6568 15.7236 14.148C15.7236 15.6392 16.9325 16.848 18.4236 16.848Z" stroke="#ED7D2D" stroke-width="2.16" stroke-miterlimit="10" stroke-linecap="square"/>
<path d="M4.92383 8.74792L31.9238 8.74792" stroke="#ED7D2D" stroke-width="2.16" stroke-miterlimit="10" stroke-linecap="square"/>
<path d="M6.72363 5.14795L6.72363 12.3479" stroke="#ED7D2D" stroke-width="2.16" stroke-miterlimit="10" stroke-linecap="square"/>
<path d="M30.124 5.14795V12.3479" stroke="#ED7D2D" stroke-width="2.16" stroke-miterlimit="10" stroke-linecap="square"/>
</svg>
